<svg xmlns="http://www.w3.org/2000/svg" width="39.538" height="33.579" viewBox="0 0 39.538 33.579">
  <path id="Path_171" data-name="Path 171" d="M549.65,574.029a18.479,18.479,0,0,0,4.511-4.976,2.7,2.7,0,0,0-.658-3.782,43.694,43.694,0,0,1-10.381-12.516c-2.11-3.758-4.276-7.542-5.053-12.306,1.855,1.554,3.515,2.884,5.107,4.292,5.034,4.447,9.946,9.074,16.046,12.115,3.134,1.562,6.349,3.036,10.052,1.581a20.32,20.32,0,0,0,3.532-2.105,3.544,3.544,0,0,1,4.8.491c-2.5.9-4.781,2.041-6.308,4.258a25.825,25.825,0,0,1-5.721,6.078A36.062,36.062,0,0,1,549.65,574.029Z" transform="translate(-538.07 -540.45)" fill="#3a499a"/>
</svg>
