<svg xmlns="http://www.w3.org/2000/svg" width="15.394" height="15.394" viewBox="0 0 15.394 15.394">
  <path id="ship" d="M15.394,13.47a2.236,2.236,0,0,1-2.405,1.924,2.7,2.7,0,0,1-1.764-.641,2.769,2.769,0,0,1-3.528.009,2.755,2.755,0,0,1-3.519-.009,2.7,2.7,0,0,1-1.772.641A2.236,2.236,0,0,1,0,13.47a.641.641,0,0,1,1.283,0c0,.2.424.641,1.122.641a1.286,1.286,0,0,0,1.026-.439,1.266,1.266,0,0,0-.085-.121A7.818,7.818,0,0,1,1.3,9.585,1.924,1.924,0,0,1,2.589,7.412L7.056,5.952v6.235a.641.641,0,0,0,1.283,0V5.952l4.446,1.459h0a1.928,1.928,0,0,1,1.283,2.173,7.8,7.8,0,0,1-2.024,3.966,1.239,1.239,0,0,0-.082.118,1.3,1.3,0,0,0,1.028.443c.685,0,1.122-.421,1.122-.641a.641.641,0,0,1,1.283,0ZM7.7,4.49a3.745,3.745,0,0,1,1.042.242l4.09,1.342V4.746a2.181,2.181,0,0,0-2.181-2.181H9.621V1.924a1.924,1.924,0,1,0-3.849,0v.641H4.746A2.181,2.181,0,0,0,2.566,4.746V6.07L6.657,4.732A3.69,3.69,0,0,1,7.7,4.49Z" fill="#3a499a"/>
</svg>
