<svg xmlns="http://www.w3.org/2000/svg" width="22.45" height="19.066" viewBox="0 0 22.45 19.066">
  <path id="Path_3159" data-name="Path 3159" d="M544.645,559.516a10.491,10.491,0,0,0,2.561-2.825,1.533,1.533,0,0,0-.373-2.147,24.809,24.809,0,0,1-5.894-7.106,20.89,20.89,0,0,1-2.869-6.987c1.053.882,2,1.637,2.9,2.437,2.858,2.525,5.648,5.152,9.111,6.879,1.78.887,3.605,1.724,5.708.9a11.536,11.536,0,0,0,2.006-1.2,2.012,2.012,0,0,1,2.725.279,6.881,6.881,0,0,0-3.582,2.418,14.662,14.662,0,0,1-3.249,3.451A20.476,20.476,0,0,1,544.645,559.516Z" transform="translate(-538.07 -540.45)" fill="#fff"/>
</svg>
